<svg width="21" height="21" viewBox="0 0 21 21" fill="none" xmlns="http://www.w3.org/2000/svg">
<path d="M14.7355 13.299L11.7957 16.2154C8.87925 14.5472 6.46443 12.1324 4.79623 9.21597L7.71267 6.27619C7.98098 5.99621 8.09764 5.61124 8.02765 5.22627L7.15271 0.933263C7.04772 0.396637 6.56942 0 6.00947 0H1.16817C0.514883 0 -0.0334093 0.548292 0.00158804 1.20158C0.199906 4.57299 1.2265 7.73442 2.83637 10.4992C4.67957 13.684 7.3277 16.3204 10.5008 18.1636C13.2656 19.7618 16.427 20.8001 19.7984 20.9984C20.4517 21.0334 21 20.4851 21 19.8318V14.9905C21 14.4306 20.6034 13.9523 20.0667 13.8473L15.7854 12.9957C15.599 12.9551 15.4054 12.9616 15.2221 13.0145C15.0388 13.0675 14.8715 13.1652 14.7355 13.299Z" fill="#3A3533"/>
</svg>
